<!-- Generated by IcoMoon.io -->
<svg version="1.1" xmlns="http://www.w3.org/2000/svg" width="21" height="24" viewBox="0 0 21 24">
<title>delete-trash</title>
<path d="M8.296 19.2c0.655 0 1.185-0.537 1.185-1.2v-7.2c0-0.663-0.531-1.2-1.185-1.2s-1.185 0.537-1.185 1.2v7.2c0 0.663 0.531 1.2 1.185 1.2zM20.148 4.8h-4.741v-1.2c0-1.988-1.592-3.6-3.556-3.6h-2.37c-1.964 0-3.556 1.612-3.556 3.6v1.2h-4.741c-0.655 0-1.185 0.537-1.185 1.2s0.531 1.2 1.185 1.2h1.185v13.2c0 1.988 1.592 3.6 3.556 3.6h9.481c1.964 0 3.556-1.612 3.556-3.6v-13.2h1.185c0.655 0 1.185-0.537 1.185-1.2s-0.531-1.2-1.185-1.2zM8.296 3.6c0-0.663 0.531-1.2 1.185-1.2h2.37c0.655 0 1.185 0.537 1.185 1.2v1.2h-4.741v-1.2zM16.593 20.4c0 0.663-0.531 1.2-1.185 1.2h-9.481c-0.655 0-1.185-0.537-1.185-1.2v-13.2h11.852v13.2zM13.037 19.2c0.655 0 1.185-0.537 1.185-1.2v-7.2c0-0.663-0.531-1.2-1.185-1.2s-1.185 0.537-1.185 1.2v7.2c0 0.663 0.531 1.2 1.185 1.2z"></path>
</svg>
