<!-- Generated by IcoMoon.io -->
<svg version="1.1" xmlns="http://www.w3.org/2000/svg" width="24" height="24" viewBox="0 0 24 24">
<title>pen-edit</title>
<path d="M24 6.288c0.002-0.319-0.123-0.626-0.348-0.852l-5.088-5.088c-0.226-0.225-0.533-0.35-0.852-0.348-0.319-0.002-0.626 0.123-0.852 0.348l-16.512 16.512c-0.225 0.226-0.35 0.533-0.348 0.852v5.088c0 0.663 0.537 1.2 1.2 1.2h5.088c0.34 0.018 0.671-0.108 0.912-0.348l13.044-13.116 3.408-3.336c0.11-0.116 0.199-0.25 0.264-0.396 0.012-0.096 0.012-0.192 0-0.288 0.006-0.056 0.006-0.112 0-0.168l0.084-0.060zM5.796 21.6h-3.396v-3.396l11.916-11.916 3.396 3.396-11.916 11.916zM19.404 7.992l-3.396-3.396 1.704-1.692 3.384 3.384-1.692 1.704z"></path>
</svg>
